<svg width="229" height="81" viewBox="0 0 229 81" fill="none" xmlns="http://www.w3.org/2000/svg">
<path d="M59.8342 10.2756C64.14 6.19352 71.2532 8.98355 71.6356 14.9044L74.5188 59.5489C74.7794 63.584 71.5768 67 67.5333 67H17.5582C11.2315 67 8.15083 59.2728 12.7422 54.92L59.8342 10.2756Z" fill="white"/>
<path d="M74.232 23.9059C78.5378 19.8238 85.651 22.6139 86.0334 28.5347L88.9166 73.1792C89.1772 77.2143 85.9746 80.6303 81.9311 80.6303H31.956C25.6293 80.6303 22.5486 72.9031 27.14 68.5503L74.232 23.9059Z" fill="#40416B"/>
<path d="M104.835 54.1349C104.835 52.5349 105.235 51.0389 106.035 49.6469C106.851 48.2549 107.947 47.1509 109.323 46.3349C110.715 45.5029 112.219 45.0869 113.835 45.0869C115.451 45.0869 116.947 45.5029 118.323 46.3349C119.715 47.1509 120.819 48.2549 121.635 49.6469C122.467 51.0389 122.883 52.5349 122.883 54.1349C122.883 55.7669 122.467 57.2709 121.635 58.6469C120.819 60.0229 119.715 61.1189 118.323 61.9349C116.947 62.7349 115.451 63.1349 113.835 63.1349C112.203 63.1349 110.699 62.7349 109.323 61.9349C107.947 61.1189 106.851 60.0229 106.035 58.6469C105.235 57.2709 104.835 55.7669 104.835 54.1349ZM108.435 54.1349C108.435 55.1589 108.675 56.1029 109.155 56.9669C109.651 57.8309 110.315 58.5189 111.147 59.0309C111.995 59.5269 112.931 59.7749 113.955 59.7749C114.947 59.7749 115.851 59.5269 116.667 59.0309C117.483 58.5189 118.123 57.8389 118.587 56.9909C119.051 56.1269 119.283 55.1749 119.283 54.1349C119.283 53.0789 119.043 52.1189 118.563 51.2549C118.083 50.3909 117.427 49.7109 116.595 49.2149C115.779 48.7029 114.867 48.4469 113.859 48.4469C112.851 48.4469 111.931 48.7029 111.099 49.2149C110.283 49.7109 109.635 50.3909 109.155 51.2549C108.675 52.1189 108.435 53.0789 108.435 54.1349ZM142.264 45.2789V63.6629H142.168L129.808 52.5029L129.88 62.9429H126.352V44.5829H126.496L138.832 55.9109L138.76 45.2789H142.264Z" fill="white"/>
<path d="M150.341 55.9829V58.9109H145.829V55.9829H150.341ZM167.397 61.4789C166.949 61.8469 166.237 62.2149 165.261 62.5829C164.285 62.9509 163.221 63.1349 162.069 63.1349C160.229 63.1349 158.629 62.7349 157.269 61.9349C155.909 61.1349 154.869 60.0629 154.149 58.7189C153.429 57.3589 153.069 55.8709 153.069 54.2549C153.069 52.4789 153.429 50.8949 154.149 49.5029C154.869 48.1109 155.877 47.0309 157.173 46.2629C158.469 45.4789 159.965 45.0869 161.661 45.0869C162.733 45.0869 163.725 45.2309 164.637 45.5189C165.549 45.8069 166.349 46.1669 167.037 46.5989L165.669 49.8869C164.405 48.9269 163.109 48.4469 161.781 48.4469C160.885 48.4469 160.045 48.6949 159.261 49.1909C158.477 49.6869 157.853 50.3669 157.389 51.2309C156.925 52.0789 156.693 53.0229 156.693 54.0629C156.693 55.1989 156.909 56.1989 157.341 57.0629C157.773 57.9109 158.389 58.5749 159.189 59.0549C159.989 59.5349 160.925 59.7749 161.997 59.7749C162.861 59.7749 163.637 59.6389 164.325 59.3669C165.013 59.0789 165.557 58.7429 165.957 58.3589L167.397 61.4789ZM169.803 54.1349C169.803 52.5349 170.203 51.0389 171.003 49.6469C171.819 48.2549 172.915 47.1509 174.291 46.3349C175.683 45.5029 177.187 45.0869 178.803 45.0869C180.419 45.0869 181.915 45.5029 183.291 46.3349C184.683 47.1509 185.787 48.2549 186.603 49.6469C187.435 51.0389 187.851 52.5349 187.851 54.1349C187.851 55.7669 187.435 57.2709 186.603 58.6469C185.787 60.0229 184.683 61.1189 183.291 61.9349C181.915 62.7349 180.419 63.1349 178.803 63.1349C177.171 63.1349 175.667 62.7349 174.291 61.9349C172.915 61.1189 171.819 60.0229 171.003 58.6469C170.203 57.2709 169.803 55.7669 169.803 54.1349ZM173.403 54.1349C173.403 55.1589 173.643 56.1029 174.123 56.9669C174.619 57.8309 175.283 58.5189 176.115 59.0309C176.963 59.5269 177.899 59.7749 178.923 59.7749C179.915 59.7749 180.819 59.5269 181.635 59.0309C182.451 58.5189 183.091 57.8389 183.555 56.9909C184.019 56.1269 184.251 55.1749 184.251 54.1349C184.251 53.0789 184.011 52.1189 183.531 51.2549C183.051 50.3909 182.395 49.7109 181.563 49.2149C180.747 48.7029 179.835 48.4469 178.827 48.4469C177.819 48.4469 176.899 48.7029 176.067 49.2149C175.251 49.7109 174.603 50.3909 174.123 51.2549C173.643 52.1189 173.403 53.0789 173.403 54.1349ZM200.849 62.9429L197.129 57.3269H194.801V62.9429H191.321V45.2789H196.673C198.865 45.2789 200.561 45.8149 201.761 46.8869C202.977 47.9429 203.585 49.3909 203.585 51.2309C203.585 52.3189 203.353 53.3429 202.889 54.3029C202.441 55.2469 201.745 55.9909 200.801 56.5349L204.905 62.9429H200.849ZM194.801 53.9669H197.273C198.217 53.9669 198.905 53.6949 199.337 53.1509C199.769 52.5909 199.985 51.9909 199.985 51.3509C199.985 50.7109 199.801 50.1029 199.433 49.5269C199.065 48.9349 198.353 48.6389 197.297 48.6389H194.801V53.9669ZM219.822 45.2789V48.6389H211.254V52.4069H218.838V55.7669H211.254V59.5829H220.158V62.9429H207.774V45.2789H219.822Z" fill="#40416B"/>
</svg>
