<svg width="24" height="27" viewBox="0 0 24 27" fill="none" xmlns="http://www.w3.org/2000/svg">
<g id="Edit icon">
<path id="icon" fill-rule="evenodd" clip-rule="evenodd" d="M22 21.8877V14.4246H20V21.8877H4V4.82924H11V2.69693H4C2.89543 2.69693 2 3.6516 2 4.82924V21.8877C2 23.0653 2.89543 24.02 4 24.02H20C21.1046 24.02 22 23.0653 22 21.8877ZM19.1781 3.46821C18.7197 2.97564 18.0921 2.69693 17.4374 2.69693C16.7834 2.69693 16.1564 2.97501 15.6954 3.4695L7.3265 12.3919C6.57867 13.0944 6.08844 14.1398 6.00325 15.264L6 18.6917V19.7579H10.1346C11.2689 19.6749 12.259 19.1471 12.9575 18.2881L21.279 9.41992C21.7407 8.9277 22.0001 8.26011 22.0001 7.56401C22.0001 6.8679 21.7407 6.20031 21.279 5.70809L19.1781 3.46821ZM10.064 17.6282C10.5982 17.5879 11.0955 17.3228 11.4948 16.8359L17.5567 10.3729L14.8024 7.43628L8.6961 13.9444C8.29095 14.3265 8.04031 14.8609 8 15.3499V17.6262L10.064 17.6282ZM16.2169 5.92875L18.9709 8.86518L19.8648 7.91216C19.9514 7.81982 20.0001 7.69459 20.0001 7.56401C20.0001 7.43343 19.9514 7.3082 19.8648 7.21587L17.7611 4.97302C17.6755 4.881 17.5589 4.82924 17.4374 4.82924C17.3158 4.82924 17.1992 4.881 17.1136 4.97302L16.2169 5.92875Z" fill="#A4A4A4"/>
</g>
</svg>
