<svg width="32" height="35" viewBox="0 0 32 35" fill="none" xmlns="http://www.w3.org/2000/svg">
<g id="24 / finance / wallet">
<path id="icon" fill-rule="evenodd" clip-rule="evenodd" d="M21.5209 2.38484C23.2202 1.94438 24.9914 2.83704 25.4769 4.37865C25.5586 4.63801 25.6 4.90644 25.6 5.17618V7.60642H28.8C30.5673 7.60642 32 8.90615 32 10.5095V27.9276C32 29.5309 30.5673 30.8307 28.8 30.8307H3.2C1.43269 30.8307 0 29.5309 0 27.9276H0.0427294C0.0143242 27.7715 0 27.6134 0 27.4548V10.1528C0 8.85665 0.947127 7.71754 2.32089 7.36147L21.5209 2.38484ZM13.024 27.9276H28.8L28.8 16.3155H25.6V13.4125H28.8L28.8 10.5095H25.6V22.4782C25.6 23.7743 24.6529 24.9134 23.2791 25.2695L13.024 27.9276ZM3.19998 10.1528V27.4548L22.4 22.4781V5.17614L3.19998 10.1528ZM19.2 13.4125C19.2 14.2141 18.4837 14.864 17.6 14.864C16.7163 14.864 16 14.2141 16 13.4125C16 12.6108 16.7163 11.961 17.6 11.961C18.4837 11.961 19.2 12.6108 19.2 13.4125Z" fill="#40416B"/>
</g>
</svg>
