<svg width="257" height="142" viewBox="0 0 257 142" fill="none" xmlns="http://www.w3.org/2000/svg">
<path d="M3.12 113.31H9.06C11.76 113.31 13.99 113.85 15.75 114.93C17.53 115.99 18.82 117.37 19.62 119.07C20.44 120.75 20.85 122.53 20.85 124.41C20.85 126.51 20.36 128.37 19.38 129.99C18.4 131.59 17.09 132.83 15.45 133.71C13.81 134.57 12.03 135 10.11 135H3.12V113.31ZM9.54 132.18C11.14 132.18 12.57 131.87 13.83 131.25C15.09 130.61 16.07 129.69 16.77 128.49C17.49 127.29 17.85 125.86 17.85 124.2C17.85 122.5 17.48 121.04 16.74 119.82C16 118.6 15.01 117.68 13.77 117.06C12.55 116.42 11.23 116.1 9.81 116.1H6.03V132.18H9.54ZM37.7972 122.58V135H35.0072V132.96C34.5672 133.54 33.9272 134.08 33.0872 134.58C32.2472 135.06 31.2972 135.3 30.2372 135.3C29.0572 135.3 27.9872 135.05 27.0272 134.55C26.0872 134.03 25.3372 133.28 24.7772 132.3C24.2372 131.32 23.9672 130.15 23.9672 128.79C23.9672 127.43 24.2472 126.25 24.8072 125.25C25.3872 124.23 26.1572 123.45 27.1172 122.91C28.0972 122.35 29.1772 122.07 30.3572 122.07C31.4172 122.07 32.3372 122.3 33.1172 122.76C33.8972 123.22 34.5272 123.82 35.0072 124.56L35.2172 122.58H37.7972ZM30.9872 132.99C32.0072 132.99 32.8772 132.71 33.5972 132.15C34.3372 131.57 34.8072 130.79 35.0072 129.81V127.35C34.7672 126.47 34.2672 125.76 33.5072 125.22C32.7472 124.66 31.8772 124.38 30.8972 124.38C30.1572 124.38 29.4672 124.56 28.8272 124.92C28.2072 125.28 27.7072 125.79 27.3272 126.45C26.9672 127.09 26.7872 127.82 26.7872 128.64C26.7872 129.44 26.9772 130.17 27.3572 130.83C27.7372 131.49 28.2472 132.02 28.8872 132.42C29.5272 132.8 30.2272 132.99 30.9872 132.99ZM46.6746 117.12V122.61H50.0646V124.83H46.6746V135H43.8546V124.83H41.5746V122.61H43.8546V117.12H46.6746ZM66.2152 122.58V135H63.4252V132.96C62.9852 133.54 62.3452 134.08 61.5052 134.58C60.6652 135.06 59.7152 135.3 58.6552 135.3C57.4752 135.3 56.4052 135.05 55.4452 134.55C54.5052 134.03 53.7552 133.28 53.1952 132.3C52.6552 131.32 52.3852 130.15 52.3852 128.79C52.3852 127.43 52.6652 126.25 53.2252 125.25C53.8052 124.23 54.5752 123.45 55.5352 122.91C56.5152 122.35 57.5952 122.07 58.7752 122.07C59.8352 122.07 60.7552 122.3 61.5352 122.76C62.3152 123.22 62.9452 123.82 63.4252 124.56L63.6352 122.58H66.2152ZM59.4052 132.99C60.4252 132.99 61.2952 132.71 62.0152 132.15C62.7552 131.57 63.2252 130.79 63.4252 129.81V127.35C63.1852 126.47 62.6852 125.76 61.9252 125.22C61.1652 124.66 60.2952 124.38 59.3152 124.38C58.5752 124.38 57.8852 124.56 57.2452 124.92C56.6252 125.28 56.1252 125.79 55.7452 126.45C55.3852 127.09 55.2052 127.82 55.2052 128.64C55.2052 129.44 55.3952 130.17 55.7752 130.83C56.1552 131.49 56.6652 132.02 57.3052 132.42C57.9452 132.8 58.6452 132.99 59.4052 132.99ZM84.5726 113.31V116.1H78.7526V135H75.8426V116.1H70.1726V113.31H84.5726ZM89.4464 125.52C89.7664 124.84 90.2164 124.24 90.7964 123.72C91.3964 123.2 92.0264 122.8 92.6864 122.52C93.3464 122.24 93.9264 122.09 94.4264 122.07L94.3064 124.86C93.4064 124.82 92.5864 125 91.8464 125.4C91.1264 125.8 90.5564 126.36 90.1364 127.08C89.7364 127.78 89.5364 128.53 89.5364 129.33V135H86.7464V122.58H89.2364L89.4464 125.52ZM110.483 122.58V135H107.693V132.96C107.253 133.54 106.613 134.08 105.773 134.58C104.933 135.06 103.983 135.3 102.923 135.3C101.743 135.3 100.673 135.05 99.7127 134.55C98.7727 134.03 98.0227 133.28 97.4627 132.3C96.9227 131.32 96.6527 130.15 96.6527 128.79C96.6527 127.43 96.9327 126.25 97.4927 125.25C98.0727 124.23 98.8427 123.45 99.8027 122.91C100.783 122.35 101.863 122.07 103.043 122.07C104.103 122.07 105.023 122.3 105.803 122.76C106.583 123.22 107.213 123.82 107.693 124.56L107.903 122.58H110.483ZM103.673 132.99C104.693 132.99 105.563 132.71 106.283 132.15C107.023 131.57 107.493 130.79 107.693 129.81V127.35C107.453 126.47 106.953 125.76 106.193 125.22C105.433 124.66 104.563 124.38 103.583 124.38C102.843 124.38 102.153 124.56 101.513 124.92C100.893 125.28 100.393 125.79 100.013 126.45C99.6527 127.09 99.4727 127.82 99.4727 128.64C99.4727 129.44 99.6627 130.17 100.043 130.83C100.423 131.49 100.933 132.02 101.573 132.42C102.213 132.8 102.913 132.99 103.673 132.99ZM128.3 111.75V135H125.48V133.05C124.88 133.75 124.14 134.3 123.26 134.7C122.4 135.1 121.45 135.3 120.41 135.3C119.25 135.3 118.2 135.02 117.26 134.46C116.32 133.9 115.58 133.12 115.04 132.12C114.52 131.1 114.26 129.93 114.26 128.61C114.26 127.27 114.54 126.11 115.1 125.13C115.66 124.13 116.43 123.37 117.41 122.85C118.39 122.33 119.5 122.07 120.74 122.07C121.68 122.07 122.58 122.27 123.44 122.67C124.32 123.05 125.01 123.58 125.51 124.26V111.75H128.3ZM121.28 132.9C122.36 132.9 123.27 132.61 124.01 132.03C124.77 131.45 125.26 130.67 125.48 129.69V127.35C125.24 126.45 124.73 125.72 123.95 125.16C123.17 124.58 122.28 124.29 121.28 124.29C120.52 124.29 119.82 124.48 119.18 124.86C118.54 125.22 118.03 125.73 117.65 126.39C117.27 127.03 117.08 127.76 117.08 128.58C117.08 129.38 117.27 130.11 117.65 130.77C118.03 131.43 118.54 131.95 119.18 132.33C119.82 132.71 120.52 132.9 121.28 132.9ZM138.943 132.9C139.983 132.9 140.993 132.54 141.973 131.82L143.263 133.89C142.603 134.33 141.883 134.68 141.103 134.94C140.343 135.18 139.603 135.3 138.883 135.3C137.503 135.3 136.293 135.02 135.253 134.46C134.233 133.88 133.443 133.09 132.883 132.09C132.323 131.09 132.043 129.96 132.043 128.7C132.043 127.48 132.343 126.37 132.943 125.37C133.563 124.35 134.403 123.55 135.463 122.97C136.523 122.37 137.683 122.07 138.943 122.07C140.563 122.07 141.913 122.55 142.993 123.51C144.093 124.45 144.843 125.77 145.243 127.47L135.403 130.92C135.763 131.54 136.243 132.03 136.843 132.39C137.463 132.73 138.163 132.9 138.943 132.9ZM138.733 124.29C137.593 124.29 136.653 124.69 135.913 125.49C135.173 126.29 134.803 127.31 134.803 128.55C134.803 128.85 134.813 129.08 134.833 129.24L142.063 126.57C141.763 125.89 141.333 125.34 140.773 124.92C140.233 124.5 139.553 124.29 138.733 124.29ZM151.409 125.52C151.729 124.84 152.179 124.24 152.759 123.72C153.359 123.2 153.989 122.8 154.649 122.52C155.309 122.24 155.889 122.09 156.389 122.07L156.269 124.86C155.369 124.82 154.549 125 153.809 125.4C153.089 125.8 152.519 126.36 152.099 127.08C151.699 127.78 151.499 128.53 151.499 129.33V135H148.709V122.58H151.199L151.409 125.52ZM164.849 113.37C166.009 113.37 167.079 113.64 168.059 114.18C169.039 114.72 169.809 115.47 170.369 116.43C170.949 117.39 171.239 118.46 171.239 119.64C171.239 120.82 170.949 121.89 170.369 122.85C169.809 123.79 169.039 124.54 168.059 125.1C167.079 125.64 166.009 125.91 164.849 125.91C163.689 125.91 162.619 125.64 161.639 125.1C160.679 124.54 159.909 123.79 159.329 122.85C158.769 121.89 158.489 120.82 158.489 119.64C158.489 118.46 158.769 117.39 159.329 116.43C159.909 115.47 160.679 114.72 161.639 114.18C162.619 113.64 163.689 113.37 164.849 113.37ZM164.849 124.32C165.729 124.32 166.519 124.12 167.219 123.72C167.939 123.32 168.499 122.76 168.899 122.04C169.319 121.32 169.529 120.52 169.529 119.64C169.529 118.76 169.319 117.96 168.899 117.24C168.499 116.52 167.939 115.96 167.219 115.56C166.499 115.14 165.709 114.93 164.849 114.93C163.989 114.93 163.199 115.14 162.479 115.56C161.779 115.96 161.219 116.52 160.799 117.24C160.399 117.96 160.199 118.76 160.199 119.64C160.199 120.52 160.399 121.32 160.799 122.04C161.219 122.74 161.779 123.3 162.479 123.72C163.199 124.12 163.989 124.32 164.849 124.32ZM167.369 118.41C167.369 118.81 167.269 119.18 167.069 119.52C166.889 119.86 166.629 120.12 166.289 120.3L167.429 122.76H165.629L164.729 120.54H164.159V122.76H162.599V116.37H165.089C165.829 116.37 166.389 116.55 166.769 116.91C167.169 117.25 167.369 117.75 167.369 118.41ZM164.189 119.31H164.789C165.389 119.31 165.689 119.03 165.689 118.47C165.689 118.21 165.609 118 165.449 117.84C165.309 117.66 165.099 117.57 164.819 117.57H164.189V119.31Z" fill="#A4A4A4"/>
<path d="M88.8662 11.3641C92.2493 8.15682 97.8383 10.349 98.1387 15.0011L101.022 59.6455C101.227 62.816 98.7104 65.5 95.5333 65.5H45.5582C40.5872 65.5 38.1667 59.4286 41.7742 56.0086L88.8662 11.3641Z" stroke="#A4A4A4" stroke-width="3"/>
<path d="M103.264 24.9945C106.647 21.7872 112.236 23.9793 112.537 28.6315L115.42 73.2759C115.624 76.4463 113.108 79.1304 109.931 79.1304H59.956C54.985 79.1304 52.5645 73.059 56.1721 69.6389L103.264 24.9945Z" stroke="#A4A4A4" stroke-width="3"/>
</svg>
