<svg width="333" height="248" viewBox="0 0 333 248" fill="none" xmlns="http://www.w3.org/2000/svg">
<rect width="333" height="248" rx="5" fill="#40416B"/>
<path fill-rule="evenodd" clip-rule="evenodd" d="M143 95H184.424V109H190V152H148.576V138H143V95ZM150.966 138V142H187.61V112H184.424V138H150.966ZM182.034 112V128H150.966V112H182.034ZM182.034 109H148.576V128H145.39V98H182.034V109Z" fill="#262626"/>
<path fill-rule="evenodd" clip-rule="evenodd" d="M178 151.5C178 155.642 174.642 159 170.5 159C166.358 159 163 155.642 163 151.5C163 147.358 166.358 144 170.5 144C174.642 144 178 147.358 178 151.5ZM170 151V147H171V151H175V152H171V156H170V152H166V151H170Z" fill="white"/>
</svg>
